<?xml version="1.0" encoding="UTF-8" standalone="no"?>
<svg
   viewBox="0 0 501.30965 277.63728"
   width="501.30966"
   height="277.63727"
   version="1.1"
   id="svg5"
   xmlns="http://www.w3.org/2000/svg"
   xmlns:svg="http://www.w3.org/2000/svg">
  <desc
     id="desc1">video-box-2.dxf - scale = 12.729325, origin = (0.000000, 0.000000), method = auto</desc>
  <defs
     id="defs4" />
  <g
     id="g5"
     transform="translate(-215.88242,-694.49576)">
    <path
       d="m 697.44772,971.59003 h 18.04156 a 1.202771,1.202771 0 0 0 1.20277,-1.20277 v -0.74624 a 1.202771,1.202771 0 0 0 -0.30292,-0.79808 l -12.83995,-14.47733 a 24.055417,24.055417 0 0 1 -6.05843,-15.96155 V 731.07889 704.61793 a 9.622167,9.622167 0 0 0 -9.62216,-9.62216 H 601.611 a 24.055417,24.055417 0 0 0 -17.00975,7.04567 l -21.99179,21.99179 a 24.055417,24.055417 0 0 1 -17.00975,7.04566 H 226.00458 a 9.622167,9.622167 0 0 0 -9.62216,9.62217 V 962.0109 a 9.622167,9.622167 0 0 0 9.62216,9.62216 h 471.44314 a 0.043034,0.043034 0 0 0 0.043,-0.043"
       style="fill:#427a9f;stroke:none"
       id="path5" />
  </g>
</svg>
