<?xml version="1.0" encoding="UTF-8" standalone="no"?>
<svg
   viewBox="0 0 493.68691 277.37116"
   width="493.68692"
   height="277.37115"
   version="1.1"
   id="svg5"
   xmlns="http://www.w3.org/2000/svg"
   xmlns:svg="http://www.w3.org/2000/svg">
  <desc
     id="desc1">video-box-2.dxf - scale = 12.719151, origin = (0.000000, 0.000000), method = auto</desc>
  <defs
     id="defs4" />
  <g
     id="g5"
     transform="translate(-216.28614,-701.35003)">
    <path
       d="m 709.47306,975.81757 a 2.403619,2.403619 0 0 0 -0.31522,-1.18994 l -8.49572,-14.91045 a 24.036192,24.036192 0 0 1 -3.15214,-11.89937 V 737.90433 711.46452 a 9.614477,9.614477 0 0 0 -9.61448,-9.61448 h -86.18865 a 24.036192,24.036192 0 0 0 -16.99615,7.04004 l -21.97421,21.97421 a 24.036192,24.036192 0 0 1 -16.99616,7.04004 H 226.40062 a 9.614477,9.614477 0 0 0 -9.61447,9.61448 v 221.0879 a 9.614477,9.614477 0 0 0 9.61447,9.61448 h 471.0643 9.60452 a 2.403619,2.403619 0 0 0 2.40362,-2.40362 z"
       style="fill:#4b7b92;stroke:none"
       id="path5" />
  </g>
</svg>
