<svg xmlns="http://www.w3.org/2000/svg" width="344" height="344" viewBox="0 0 344 344">
<g>
<path d="M 322.46 340.42 C319.38,339.37 287.04,307.56 162.70,183.30 C54.50,75.17 6.22,26.28 4.92,23.50 C2.51,18.37 2.53,15.84 5.00,10.99 C8.06,5.00 14.55,2.28 21.44,4.10 C24.92,5.02 31.43,11.09 67.17,46.73 L 108.84 88.29 L 112.77 84.89 C114.93,83.03 126.21,73.04 137.84,62.70 C149.47,52.36 160.55,43.25 162.46,42.45 C171.30,38.76 182.93,42.62 187.76,50.85 L 190.50 55.50 L 190.78 113.00 L 191.05 170.50 L 264.96 244.50 C320.56,300.16 339.03,319.24 339.52,321.50 C339.88,323.15 340.36,325.11 340.59,325.86 C341.39,328.41 339.04,334.59 336.27,337.20 C332.35,340.90 327.28,342.08 322.46,340.42 ZM 161.66 301.51 C158.06,299.63 149.88,292.71 132.04,276.45 C128.99,273.67 120.65,266.26 113.50,259.96 C106.35,253.67 95.63,244.13 89.67,238.76 L 78.85 229.00 L 63.74 229.00 C46.28,229.00 39.98,227.68 32.86,222.51 C29.60,220.14 27.31,217.31 25.11,212.91 L 22.00 206.68 L 22.00 173.02 C22.00,133.72 22.18,132.69 30.43,124.43 C36.32,118.55 42.52,116.00 50.94,116.00 L 56.52 116.00 L 123.76 183.27 L 191.00 250.53 L 190.99 267.52 C190.99,276.86 190.50,286.30 189.90,288.50 C188.37,294.10 184.45,298.89 179.62,301.09 C174.62,303.35 165.61,303.57 161.66,301.51 ZM 285.99 233.48 L 276.50 223.94 L 278.79 220.22 C290.66,200.90 295.88,179.66 293.07,161.99 C289.76,141.11 282.21,126.34 266.89,110.77 C261.25,105.03 258.71,101.64 257.95,98.82 C256.06,91.80 259.44,85.80 267.09,82.61 C269.95,81.41 271.50,81.34 275.03,82.23 C284.83,84.72 305.35,109.29 313.02,127.71 C323.59,153.09 324.83,182.76 316.37,207.97 C312.09,220.73 300.21,241.47 296.49,242.68 C295.93,242.86 291.20,238.72 285.99,233.48 ZM 245.62 193.12 L 235.78 183.25 L 236.53 178.87 C238.40,167.97 236.15,160.31 228.71,152.28 C223.18,146.31 222.00,144.07 222.00,139.52 C222.00,131.33 227.63,126.00 236.27,126.00 C240.86,126.00 242.34,126.49 245.61,129.08 C261.54,141.71 269.17,164.20 264.45,184.57 C262.90,191.24 257.65,203.00 256.22,203.00 C255.80,203.00 251.03,198.56 245.62,193.12 Z" fill="rgba(0,0,0,1)"/>
</g>
</svg>