<svg xmlns="http://www.w3.org/2000/svg" width="305" height="296" viewBox="0 0 305 296">
<g>
<path d="M 144.50 279.81 C140.47,278.42 136.58,275.29 115.57,256.52 C105.71,247.71 88.89,232.78 78.20,223.34 L 58.76 206.19 L 40.63 205.82 C24.21,205.49 22.10,205.24 18.28,203.22 C12.57,200.20 7.81,195.26 5.13,189.56 C2.94,184.90 2.91,184.28 3.20,148.16 L 3.50 111.50 L 6.11 107.49 C10.19,101.23 16.31,96.28 22.12,94.56 C25.88,93.44 31.78,93.00 42.93,92.99 L 58.50 92.98 L 74.07 79.24 C82.63,71.68 94.96,60.78 101.46,55.00 C143.87,17.34 142.94,18.02 151.55,18.01 C156.86,18.00 164.90,22.77 168.12,27.84 L 171.00 32.39 L 171.00 149.50 L 171.00 266.61 L 167.99 271.35 C163.10,279.06 152.94,282.72 144.50,279.81 ZM 245.00 238.25 C238.58,235.04 236.06,225.69 239.91,219.37 C240.96,217.66 244.14,214.08 246.97,211.43 C256.98,202.07 266.45,186.99 270.48,173.99 C279.82,143.91 270.67,110.19 247.07,87.62 C239.35,80.24 237.62,77.03 238.27,71.27 C239.29,62.27 248.84,56.71 257.58,60.03 C261.65,61.58 275.45,75.46 281.64,84.22 C288.42,93.81 296.03,109.81 299.13,121.00 C301.25,128.63 301.49,131.56 301.49,149.50 C301.49,167.61 301.26,170.30 299.08,178.00 C294.94,192.63 288.55,205.73 280.04,217.07 C274.22,224.83 260.97,237.68 257.39,239.04 C253.57,240.49 248.89,240.19 245.00,238.25 ZM 212.87 195.80 C207.60,194.43 203.88,190.11 203.26,184.64 C202.52,178.04 203.43,175.71 209.34,169.09 C220.72,156.33 220.81,142.77 209.60,130.20 C203.11,122.93 201.46,118.73 202.93,113.25 C205.57,103.47 217.26,99.78 225.87,106.02 C231.24,109.91 239.40,120.96 242.10,128.00 C245.76,137.54 247.35,149.31 245.99,156.92 C243.63,170.22 238.72,180.25 230.13,189.33 C224.29,195.50 219.14,197.43 212.87,195.80 Z" fill="rgba(0,0,0,1)"/>
</g>
</svg>